<svg width="100" height="100" viewBox="0 0 100 100" xmlns="http://www.w3.org/2000/svg">
  <circle cx="50" cy="50" r="50" fill="#CDDBEC" />
  <path d="M71.54 50.16v14.66c0 .73-.6 1.33-1.33 1.33H29.79c-.74 0-1.33-.6-1.33-1.33V50.25v-.1a2.6 2.6 0 001.45.43h8.49a11.72 11.72 0 0023.2 0h8.5c.52 0 1.02-.15 1.44-.42z" fill="#FFF" fill-rule="nonzero"/>
  <path d="M33.96 34.48a1 1 0 01.93-.64h30.22a1 1 0 01.93.64l4.99 13.08a1 1 0 01-.94 1.36H60.05a10.05 10.05 0 01-20.1.16v-.16H29.9a1 1 0 01-.94-1.36l4.99-13.08z" fill="#F5F7FB" fill-rule="nonzero"/>
</svg>
